<?xml version="1.0" encoding="UTF-8" standalone="no"?>
<!DOCTYPE svg PUBLIC "-//W3C//DTD SVG 1.1//EN" "http://www.w3.org/Graphics/SVG/1.1/DTD/svg11.dtd">
<svg version="1.1" xmlns="http://www.w3.org/2000/svg" xmlns:xlink="http://www.w3.org/1999/xlink" preserveAspectRatio="xMidYMid meet" viewBox="0 0 340.68 407.82" width="340.68" height="407.82"><defs><path d="M173.86 9.86L189.68 26.98L193.25 23.68L171.36 0L149.39 20.31L152.95 24.15L168.83 9.48L168.7 80L173.74 80.38L173.86 9.86Z" id="c3fxnJP2IG"></path><path d="M331.86 91.46L331.86 114.77L336.72 114.77L336.72 82.52L306.8 82.52L306.8 87.76L328.42 87.76L280.46 139.46L283.89 143.16L331.86 91.46Z" id="anVFMWaxG"></path><path d="M332.16 312.11L308.85 312.11L308.85 316.97L341.1 316.97L341.1 287.05L335.86 287.05L335.86 308.67L284.16 260.71L280.46 264.15L332.16 312.11Z" id="fvZC5KmbL"></path><path d="M168.83 394.16L152.93 377.11L149.38 380.42L171.37 404.01L193.25 383.61L189.68 379.78L173.86 394.52L173.7 324L168.66 323.64L168.83 394.16Z" id="e6fGR8Pd7F"></path><path d="M11.23 91.77L34.54 91.76L34.54 86.91L2.29 86.91L2.29 116.82L7.53 116.82L7.53 95.2L59.23 143.16L62.93 139.72L11.23 91.77Z" id="ianyp1R3L"></path><path d="M9.19 312.33L9.37 289.03L4.51 288.99L4.27 321.24L34.18 321.47L34.22 316.23L12.6 316.06L60.96 264.73L57.55 261L9.19 312.33Z" id="c58AQLrAuG"></path><path d="M171.32 78.64L58.82 139.89L58.82 262.39L171.32 323.64L283.82 262.39L283.82 139.89L171.32 78.64Z" id="a4gCQqecH"></path></defs><g><g><g><use xlink:href="#c3fxnJP2IG" opacity="1" fill="#000000" fill-opacity="1"></use><g><use xlink:href="#c3fxnJP2IG" opacity="1" fill-opacity="0" stroke="#000000" stroke-width="1" stroke-opacity="0"></use></g></g><g><use xlink:href="#anVFMWaxG" opacity="1" fill="#000000" fill-opacity="1"></use><g><use xlink:href="#anVFMWaxG" opacity="1" fill-opacity="0" stroke="#000000" stroke-width="1" stroke-opacity="0"></use></g></g><g><use xlink:href="#fvZC5KmbL" opacity="1" fill="#000000" fill-opacity="1"></use><g><use xlink:href="#fvZC5KmbL" opacity="1" fill-opacity="0" stroke="#000000" stroke-width="1" stroke-opacity="0"></use></g></g><g><use xlink:href="#e6fGR8Pd7F" opacity="1" fill="#000000" fill-opacity="1"></use><g><use xlink:href="#e6fGR8Pd7F" opacity="1" fill-opacity="0" stroke="#000000" stroke-width="1" stroke-opacity="0"></use></g></g><g><use xlink:href="#ianyp1R3L" opacity="1" fill="#000000" fill-opacity="1"></use><g><use xlink:href="#ianyp1R3L" opacity="1" fill-opacity="0" stroke="#000000" stroke-width="1" stroke-opacity="0"></use></g></g><g><use xlink:href="#c58AQLrAuG" opacity="1" fill="#000000" fill-opacity="1"></use><g><use xlink:href="#c58AQLrAuG" opacity="1" fill-opacity="0" stroke="#000000" stroke-width="1" stroke-opacity="0"></use></g></g><g><g><filter id="shadow14207531" x="-51.18" y="-31.36" width="445" height="465" filterUnits="userSpaceOnUse" primitiveUnits="userSpaceOnUse"><feFlood></feFlood><feComposite in2="SourceAlpha" operator="in"></feComposite><feGaussianBlur stdDeviation="7.07"></feGaussianBlur><feOffset dx="0" dy="0" result="afterOffset"></feOffset><feFlood flood-color="#000000" flood-opacity="0.35"></feFlood><feComposite in2="afterOffset" operator="in"></feComposite><feMorphology operator="dilate" radius="5"></feMorphology><feComposite in2="SourceAlpha" operator="out"></feComposite></filter><path d="M171.32 78.64L58.82 139.89L58.82 262.39L171.32 323.64L283.82 262.39L283.82 139.89L171.32 78.64Z" id="a6feOZTRSH" fill="white" fill-opacity="1" filter="url(#shadow14207531)"></path></g><use xlink:href="#a4gCQqecH" opacity="1" fill="#3a3365" fill-opacity="1"></use><g><use xlink:href="#a4gCQqecH" opacity="1" fill-opacity="0" stroke="#000000" stroke-width="3" stroke-opacity="1"></use></g></g></g></g></svg>